<?xml version="1.0" encoding="UTF-8"?>
<svg id="Layer_1" xmlns="http://www.w3.org/2000/svg" version="1.1" viewBox="0 0 180 79.9">
  <!-- Generator: Adobe Illustrator 30.0.0, SVG Export Plug-In . SVG Version: 2.1.1 Build 123)  -->
  <defs>
    <style>
      .st0 {
        fill: #533b4b;
      }
    </style>
  </defs>
  <path class="st0" d="M34.5,30h111c-3.9-5.7-15-12.1-15.5-19.3-.7-9.2,10.3-14.1,17-8,8.8,10.3,21.6,19.6,30,30s4.1,9.4.2,14.3c-8.2,10.4-21.6,19.9-30.2,30.2-6.7,6.1-17.7,1.2-17-8,.5-7.1,11.6-13.6,15.5-19.3H34.5c3.5,4.7,9.6,8.7,13,13.3,7.7,10.3-4.2,22.1-14.5,14S12.8,55.3,2.2,46.5c-3-3.7-3-9.3,0-13C12.8,24.6,22.4,11,33,2.7c10.3-8.1,22.2,3.7,14.5,14s-9.5,8.5-13,13.3Z"/>
</svg>