<?xml version="1.0" encoding="UTF-8"?><svg id="Layer_1" xmlns="http://www.w3.org/2000/svg" viewBox="0 0 78.3 29.251"><path d="M14.6,11.4c-1-.6-2.3-3.1-3.7-2.2-.8.5-.5,1.3,0,2,1.7,2.2,4.6,4,6,6.6,2.3,4.6-.5,10.4-5.6,11.3-4,.7-6.6-1.1-9-3.9v-4.7c1.5,1.2,2.7,2.9,4.2,4.1,4.7,3.9,10.4-1.8,6.5-6.5-1.4-1.8-5.4-4.6-5.8-6.8-.9-4.4,4.1-7.5,7.4-4.4v4.6h0v-.1Z" fill="#fff"/><path d="M.1,6.1l12.5,12.6c2.9,3.8-1.7,8.2-5.2,5.5L.1,16.9v-4.7l9.3,9.3c.3.3.7.2.7-.3L0,10.8v-4.7h.1Z" fill="#fff"/><path d="M.1,0l7,7.2c-.7,1.1-.9,2.4-.9,3.7L.1,4.7V0H.1Z" fill="#fff"/><path d="M21.7,26.4v-4.9c.5.9,1.4,1.4,2.5,1.4s1.7-.5,1.7-1.2-.2-.8-1.2-1.9l-.8-1c-.9-1.2-1.3-2.1-1.3-3.2,0-2.7,2.1-4.2,5.7-4.2s3,.2,4,.7v4.9c-.5-.8-1.5-1.4-2.6-1.4s-1.5.5-1.5,1.2.2.9,1.2,1.9l.8,1c.9,1.2,1.3,2.1,1.3,3.2,0,2.7-2.2,4.3-5.7,4.3s-2.9-.2-4-.7l-.1-.1Z" fill="#fff"/><path d="M32.8,11.7h5.1l1.2,7.8,3.2-8.2,3,8.2,2-7.8h5.2l-4.8,15.1h-4.3l-1.4-5.1-2.1,5.1h-4.3l-2.8-15.1h0Z" fill="#fff"/><path d="M57.4,11.7h6.2v15.1h-4.9v-3.8h-3.2l-1,3.8h-5.2l3.3-10.8c1-3.3,2.1-4.2,4.8-4.2h0v-.1ZM56.4,19.3h2.2v-4h-1.5" fill="#fff"/><path d="M64.9,11.7h4.2l4.4,5.1v-5.1h4.8v15.1h-4.6c0-2.7-.9-4.6-4-7.6v7.6h-4.8v-15.1Z" fill="#fff"/></svg>